<svg width="15" height="14" viewBox="0 0 15 14" fill="none" xmlns="http://www.w3.org/2000/svg">
<path d="M7.25033 1.16675C4.99283 1.16675 3.16699 2.99258 3.16699 5.25008C3.16699 8.31258 7.25033 12.8334 7.25033 12.8334C7.25033 12.8334 11.3337 8.31258 11.3337 5.25008C11.3337 2.99258 9.50783 1.16675 7.25033 1.16675ZM7.25033 6.70841C6.86355 6.70841 6.49262 6.55477 6.21913 6.28128C5.94564 6.00779 5.79199 5.63686 5.79199 5.25008C5.79199 4.86331 5.94564 4.49237 6.21913 4.21888C6.49262 3.94539 6.86355 3.79175 7.25033 3.79175C7.6371 3.79175 8.00803 3.94539 8.28152 4.21888C8.55501 4.49237 8.70866 4.86331 8.70866 5.25008C8.70866 5.63686 8.55501 6.00779 8.28152 6.28128C8.00803 6.55477 7.6371 6.70841 7.25033 6.70841Z" fill="black"/>
</svg>
